<?xml version="1.0" encoding="utf-8"?>
<!-- Generator: Adobe Illustrator 27.3.1, SVG Export Plug-In . SVG Version: 6.00 Build 0)  -->
<svg version="1.1" id="Layer_1" xmlns="http://www.w3.org/2000/svg" xmlns:xlink="http://www.w3.org/1999/xlink" x="0px" y="0px"
	 viewBox="0 0 141.7 141.7" style="enable-background:new 0 0 141.7 141.7;" xml:space="preserve">
<style type="text/css">
	.st0{fill:#FFFFFF;}
</style>
<path class="st0" d="M141.7,118.5L79.2,10.1L32.9,90.3c-0.9,1.5-0.4,3.5,1.2,4.4c0.5,0.3,1,0.4,1.6,0.4h9.6l28.2-48.8
	c1.8-3.2,5.9-4.2,9-2.4c1,0.6,1.8,1.4,2.4,2.4l49.3,85.3L141.7,118.5z"/>
<path class="st0" d="M98.3,109.4l-6.3-10.9H35.6c-3.6,0-6.6-3-6.6-6.6c0-1.1,0.3-2.3,0.9-3.3L64,29.6L76.2,8.4H61L0,114.2h95.6
	c1.1,0,2.2-0.6,2.8-1.6C98.9,111.6,98.9,110.4,98.3,109.4z"/>
<path class="st0" d="M82,48c-0.9-1.5-2.9-2.1-4.4-1.2c-0.5,0.3-0.9,0.7-1.2,1.2l-4.8,8.3l29.7,51.5c1.8,3.2,0.7,7.2-2.4,9
	c-1,0.6-2.1,0.9-3.3,0.9H0l9.1,15.7h122.2L82,48z"/>
</svg>
